<?xml version="1.0" encoding="UTF-8"?>
<svg version="1.1" xmlns="http://www.w3.org/2000/svg" width="500" height="500">
<path d="M0 0 C165 0 330 0 500 0 C500 165 500 330 500 500 C335 500 170 500 0 500 C0 335 0 170 0 0 Z " fill="#FEFEFE" transform="translate(0,0)"/>
<path d="M0 0 C0.90878906 -0.020625 1.81757812 -0.04125 2.75390625 -0.0625 C14.57470777 -0.12975918 22.39955677 3.20010417 31 11.25 C40.20593044 20.51519609 43.39747737 30.24339324 43.37060547 43.17773438 C43.04743399 54.83363327 37.77840307 64.96995808 29.375 72.9375 C19.53345993 81.08811909 9.50467562 84.02243334 -3 83.25 C-15.20334229 81.67023241 -24.22913415 77.19518772 -31.9375 67.5 C-39.86179845 55.98278486 -41.52269784 45.00461767 -40 31.25 C-38.56596227 25.19192226 -35.66664688 20.22616362 -32 15.25 C-34.64 14.92 -37.28 14.59 -40 14.25 C-40 10.29 -40 6.33 -40 2.25 C-39.16227051 2.22494385 -38.32454102 2.1998877 -37.46142578 2.17407227 C-34.35647744 2.07899643 -31.25169819 1.97975975 -28.14697266 1.87768555 C-26.14105193 1.81301749 -24.13497772 1.75316894 -22.12890625 1.69335938 C-20.24365234 1.63051758 -20.24365234 1.63051758 -18.3203125 1.56640625 C-17.15773926 1.52974854 -15.99516602 1.49309082 -14.79736328 1.45532227 C-9.79776692 1.0883594 -5.24888169 0.02880045 0 0 Z " fill="#36B6FB" transform="translate(103,208.75)"/>
<path d="M0 0 C25.78065789 0 25.78065789 0 34.375 8.23046875 C39.85171475 14.19429515 40.37442439 20.00318885 40.26953125 27.83203125 C39.58749275 35.84845483 36.49486634 41.29248266 30.48828125 46.52734375 C20.08058527 52.68700055 12.53820132 51 0 51 C0 34.17 0 17.34 0 0 Z " fill="#F5FCFC" transform="translate(96,227)"/>
<path d="M0 0 C0.33 -0.33 0.66 -0.66 1 -1 C8.17302851 -1.61047051 15.24970561 -0.27198232 20.875 4.375 C21.57625 5.24125 22.2775 6.1075 23 7 C23.69867188 7.71800781 24.39734375 8.43601563 25.1171875 9.17578125 C27.50989908 12.76484862 27.4565669 15.66129983 27.25 19.8125 C27.23195313 20.50537109 27.21390625 21.19824219 27.1953125 21.91210938 C27.14851064 23.60867664 27.07677624 25.30452476 27 27 C26.34 27 25.68 27 25 27 C24.71125 27.61875 24.4225 28.2375 24.125 28.875 C23 31 23 31 21 33 C17.92724609 33.22705078 17.92724609 33.22705078 14.0234375 33.1953125 C13.33819 33.1924826 12.6529425 33.18965271 11.94692993 33.18673706 C9.75610973 33.17553281 7.56569684 33.15042859 5.375 33.125 C3.8906309 33.11497048 2.4062554 33.10584458 0.921875 33.09765625 C-2.71888261 33.07559294 -6.35940156 33.04106176 -10 33 C-11.75500727 21.70079189 -12.04216185 11.37928077 -11 0 C-3.74 -1.15076923 -3.74 -1.15076923 0 0 Z " fill="#3175D9" transform="translate(411,245)"/>
<path d="M0 0 C13.53 0 27.06 0 41 0 C41 3.96 41 7.92 41 12 C36.38 12 31.76 12 27 12 C27 27.51 27 43.02 27 59 C22.71 59 18.42 59 14 59 C14 43.49 14 27.98 14 12 C9.38 12 4.76 12 0 12 C0 8.04 0 4.08 0 0 Z " fill="#1D73E9" transform="translate(63,211)"/>
<path d="M0 0 C14.44444444 0 14.44444444 0 20.1953125 3.90625 C22.07588936 5.25915086 22.07588936 5.25915086 25 5 C25.33 3.68 25.66 2.36 26 1 C32.625 -0.25 32.625 -0.25 36 2 C36.2487793 4.88916016 36.2487793 4.88916016 36.07421875 8.5390625 C36.01943359 9.84101563 35.96464844 11.14296875 35.90820312 12.484375 C35.83496465 13.86460084 35.76139261 15.24480902 35.6875 16.625 C35.62424925 18.01295766 35.5623829 19.40097916 35.50195312 20.7890625 C35.34827688 24.19358245 35.18036232 27.59680622 35 31 C32.36 31 29.72 31 27 31 C26.67 28.03 26.34 25.06 26 22 C25.34 23.98 24.68 25.96 24 28 C23.67 27.34 23.34 26.68 23 26 C22.42894531 26.3609375 21.85789062 26.721875 21.26953125 27.09375 C13.15898341 31.73571697 10.46849 31 0 31 C0 20.77 0 10.54 0 0 Z " fill="#5085DC" transform="translate(261,247)"/>
<path d="M0 0 C2.625 0.375 2.625 0.375 5 1 C6.125 5.75 6.125 5.75 5 8 C3.66666667 8.33333333 2.33333333 8.66666667 1 9 C0.67 9.66 0.34 10.32 0 11 C1.65 11 3.3 11 5 11 C5 17.6 5 24.2 5 31 C2.69 31 0.38 31 -2 31 C-2 26.38 -2 21.76 -2 17 C-2.66 17 -3.32 17 -4 17 C-4.02126953 18.86205078 -4.02126953 18.86205078 -4.04296875 20.76171875 C-4.089882 22.40368243 -4.13812932 24.04560837 -4.1875 25.6875 C-4.19330078 26.50412109 -4.19910156 27.32074219 -4.20507812 28.16210938 C-4.3661527 32.58271153 -4.5686804 34.46310781 -7.42578125 38.01953125 C-12.32100941 41.78566278 -16.96078322 41.66904174 -23 41 C-25.6875 39.125 -25.6875 39.125 -27 37 C-27 36.34 -27 35.68 -27 35 C-22.60563789 34.14256349 -18.47427924 33.91051442 -14 34 C-13.34 32.68 -12.68 31.36 -12 30 C-12.66 30.33 -13.32 30.66 -14 31 C-17.0826338 31.47844415 -19.92434762 31.55149629 -23 31 C-26.60762193 27.98137757 -27.81618826 26.14371747 -28.5625 21.5 C-27.9051093 17.40956896 -26.59081908 15.20042356 -24 12 C-21.25414133 10.62707066 -18.59888315 10.43328544 -15.5625 10 C-12.21883484 9.52179984 -9.20564136 9.06854712 -6 8 C-5.67 8.99 -5.34 9.98 -5 11 C-4.34 10.67 -3.68 10.34 -3 10 C-2.74280183 7.97456444 -2.49157878 5.94649776 -2.34375 3.91015625 C-2 2 -2 2 0 0 Z " fill="#3578DB" transform="translate(327,247)"/>
<path d="M0 0 C0.33 -0.33 0.66 -0.66 1 -1 C7.14029883 -1.52257862 12.21011912 0.04285717 18 2 C14 3 14 3 2 2 C2 11.9 2 21.8 2 32 C11.55374237 31.39760342 11.55374237 31.39760342 21 30 C21.495 28.515 21.495 28.515 22 27 C22.66 27 23.32 27 24 27 C24.66 22.05 25.32 17.1 26 12 C26.33 12 26.66 12 27 12 C27 16.95 27 21.9 27 27 C26.34 27 25.68 27 25 27 C24.71125 27.61875 24.4225 28.2375 24.125 28.875 C23 31 23 31 21 33 C17.92724609 33.22705078 17.92724609 33.22705078 14.0234375 33.1953125 C13.33819 33.1924826 12.6529425 33.18965271 11.94692993 33.18673706 C9.75610973 33.17553281 7.56569684 33.15042859 5.375 33.125 C3.8906309 33.11497048 2.4062554 33.10584458 0.921875 33.09765625 C-2.71888261 33.07559294 -6.35940156 33.04106176 -10 33 C-11.75500727 21.70079189 -12.04216185 11.37928077 -11 0 C-3.74 -1.15076923 -3.74 -1.15076923 0 0 Z " fill="#EDFAFE" transform="translate(411,245)"/>
<path d="M0 0 C2.64 0 5.28 0 8 0 C8.33 0.99 8.66 1.98 9 3 C9.61875 3.309375 10.2375 3.61875 10.875 3.9375 C13.53509365 5.26754683 14.45911576 6.45775681 16 9 C16.85474541 14.52889373 16.71478339 19.49101285 14.3125 24.5625 C11.91377636 27.09088437 10.2162281 28.65367196 7 30 C4.69 30 2.38 30 0 30 C0 20.1 0 10.2 0 0 Z " fill="#33B7FC" transform="translate(107,237)"/>
<path d="M0 0 C3.375 0.4375 3.375 0.4375 6.375 1.4375 C8.685 1.4375 10.995 1.4375 13.375 1.4375 C13.375 7.7075 13.375 13.9775 13.375 20.4375 C10.405 20.4375 7.435 20.4375 4.375 20.4375 C3.3025 20.664375 2.23 20.89125 1.125 21.125 C-2.4548874 21.53180539 -3.82248011 20.6172377 -6.625 18.4375 C-9.32117786 14.39323322 -9.40034998 11.18651862 -8.625 6.4375 C-6.74008755 2.29742443 -4.61455555 0.55692912 0 0 Z " fill="#2772E3" transform="translate(359.625,257.5625)"/>
<path d="M0 0 C15.40318302 0 15.40318302 0 21 5 C22.0625 7.6875 22.0625 7.6875 22 11 C22.05671875 11.81339844 22.1134375 12.62679688 22.171875 13.46484375 C22.537767 20.38630072 22.537767 20.38630072 19.98046875 23.3046875 C19.00013672 24.14386719 19.00013672 24.14386719 18 25 C18.03480469 24.10796875 18.06960938 23.2159375 18.10546875 22.296875 C18.13253906 21.12640625 18.15960938 19.9559375 18.1875 18.75 C18.22230469 17.58984375 18.25710938 16.4296875 18.29296875 15.234375 C17.97518463 11.7260383 17.26142185 10.58787383 15 8 C15 7.34 15 6.68 15 6 C12.36 6 9.72 6 7 6 C6.67 12.27 6.34 18.54 6 25 C8.64 25 11.28 25 14 25 C14 24.34 14 23.68 14 23 C14.99 23 15.98 23 17 23 C16.67 24.65 16.34 26.3 16 28 C14.35 28.33 12.7 28.66 11 29 C11 29.33 11 29.66 11 30 C7.37 30 3.74 30 0 30 C0 20.1 0 10.2 0 0 Z " fill="#226FE5" transform="translate(262,247)"/>
<path d="M0 0 C2.64 0 5.28 0 8 0 C8 8.25 8 16.5 8 25 C9.32 24.01 10.64 23.02 12 22 C15.25 21.8125 15.25 21.8125 18 22 C18 22.99 18 23.98 18 25 C18.66 25.33 19.32 25.66 20 26 C19.125 30.875 19.125 30.875 18 32 C15.66702567 32.04092937 13.33294775 32.04241723 11 32 C10.34 30.68 9.68 29.36 9 28 C8.34 29.32 7.68 30.64 7 32 C4.69 32 2.38 32 0 32 C0 21.44 0 10.88 0 0 Z " fill="#9BBFEC" transform="translate(377,246)"/>
<path d="M0 0 C1 1 1 1 1.02172852 3.77563477 C0.97459717 4.98533936 0.92746582 6.19504395 0.87890625 7.44140625 C0.83056641 8.74658203 0.78222656 10.05175781 0.73242188 11.39648438 C0.67589169 12.78516075 0.61924959 14.17383257 0.5625 15.5625 C0.50929453 16.95506021 0.45655404 18.34763826 0.40429688 19.74023438 C0.27411909 23.16035981 0.1391382 26.58022924 0 30 C-2.64 30 -5.28 30 -8 30 C-8.33 27.03 -8.66 24.06 -9 21 C-9.66 22.98 -10.32 24.96 -11 27 C-11.33 26.34 -11.66 25.68 -12 25 C-12.66 24.67 -13.32 24.34 -14 24 C-13.505 23.175 -13.01 22.35 -12.5 21.5 C-10.3241763 16.42307803 -10.22057737 12.3382679 -12 7 C-12.33 6.34 -12.66 5.68 -13 5 C-12.01 4.67 -11.02 4.34 -10 4 C-9.835 3.34 -9.67 2.68 -9.5 2 C-9.335 1.34 -9.17 0.68 -9 0 C-5.50340123 -1.16553292 -3.55568859 -0.77297578 0 0 Z " fill="#E1F5FD" transform="translate(296,248)"/>
<path d="M0 0 C7.26 0 14.52 0 22 0 C22 1.98 22 3.96 22 6 C19.36 6 16.72 6 14 6 C14 14.25 14 22.5 14 31 C11.69 31 9.38 31 7 31 C7 22.75 7 14.5 7 6 C4.69 6 2.38 6 0 6 C0 4.02 0 2.04 0 0 Z " fill="#3475D2" transform="translate(161,247)"/>
<path d="M0 0 C2.625 0.375 2.625 0.375 5 1 C6.125 5.75 6.125 5.75 5 8 C3.66666667 8.33333333 2.33333333 8.66666667 1 9 C0.67 9.66 0.34 10.32 0 11 C1.65 11 3.3 11 5 11 C5 17.6 5 24.2 5 31 C2.69 31 0.38 31 -2 31 C-2 26.38 -2 21.76 -2 17 C-2.66 17 -3.32 17 -4 17 C-4.33 22.94 -4.66 28.88 -5 35 C-5.33 35 -5.66 35 -6 35 C-6 27.41 -6 19.82 -6 12 C-8.64 12.33 -11.28 12.66 -14 13 C-14.33 12.34 -14.66 11.68 -15 11 C-12.03 10.01 -9.06 9.02 -6 8 C-5.67 8.99 -5.34 9.98 -5 11 C-4.34 10.67 -3.68 10.34 -3 10 C-2.74280183 7.97456444 -2.49157878 5.94649776 -2.34375 3.91015625 C-2 2 -2 2 0 0 Z " fill="#C5DDFB" transform="translate(327,247)"/>
<path d="M0 0 C2.31 0 4.62 0 7 0 C7.33 3.96 7.66 7.92 8 12 C9.65 12.33 11.3 12.66 13 13 C14.28446919 10.43106162 14.32977144 8.23423663 14.5625 5.375 C14.64628906 4.37210937 14.73007813 3.36921875 14.81640625 2.3359375 C14.87699219 1.56507813 14.93757812 0.79421875 15 0 C16.98 0 18.96 0 21 0 C21.76568459 12.57424249 21.76568459 12.57424249 19.1875 17.375 C14.56078863 19.7337156 10.09609518 19.91137321 5 19 C1.90651925 17.17468717 1.15741061 16.47223184 0 13 C-0.06937062 10.77181559 -0.08457084 8.54165476 -0.0625 6.3125 C-0.05347656 5.13300781 -0.04445312 3.95351563 -0.03515625 2.73828125 C-0.02355469 1.83464844 -0.01195312 0.93101562 0 0 Z " fill="#4381DA" transform="translate(203,259)"/>
<path d="M0 0 C2.64 0 5.28 0 8 0 C8 10.23 8 20.46 8 31 C5.36 31 2.72 31 0 31 C0 20.77 0 10.54 0 0 Z " fill="#5B8CD6" transform="translate(401,247)"/>
<path d="M0 0 C2.31 0 4.62 0 7 0 C7 2.31 7 4.62 7 7 C8.32 7 9.64 7 11 7 C11 8.98 11 10.96 11 13 C9.68 13 8.36 13 7 13 C7 15.64 7 18.28 7 21 C7.99 21 8.98 21 10 21 C10.33 22.98 10.66 24.96 11 27 C5.04296875 27.390625 5.04296875 27.390625 3 27 C0.7567608 24.83687649 0.06001755 23.5281544 -0.29296875 20.421875 C-0.25816406 19.54015625 -0.22335938 18.6584375 -0.1875 17.75 C-0.16042969 16.85796875 -0.13335937 15.9659375 -0.10546875 15.046875 C-0.07066406 14.37140625 -0.03585938 13.6959375 0 13 C-0.99 13 -1.98 13 -3 13 C-3 11.02 -3 9.04 -3 7 C-2.01 7 -1.02 7 0 7 C0 4.69 0 2.38 0 0 Z " fill="#3775CE" transform="translate(248,251)"/>
<path d="M0 0 C2.31 0 4.62 0 7 0 C7 2.31 7 4.62 7 7 C7.99 7 8.98 7 10 7 C10 8.32 10 9.64 10 11 C9.01 11 8.02 11 7 11 C7 13.97 7 16.94 7 20 C8.32 20.33 9.64 20.66 11 21 C11 22.65 11 24.3 11 26 C8.03 26 5.06 26 2 26 C-0.3992233 21.35150485 -0.19957409 17.08913926 0 12 C-0.99 12 -1.98 12 -3 12 C-3 10.02 -3 8.04 -3 6 C-2.01 6 -1.02 6 0 6 C0 4.02 0 2.04 0 0 Z " fill="#3579E0" transform="translate(338,252)"/>
<path d="M0 0 C0.66 0.33 1.32 0.66 2 1 C1.67 2.65 1.34 4.3 1 6 C-1.97 5.505 -1.97 5.505 -5 5 C-5 5.66 -5 6.32 -5 7 C-4.05125 7.28875 -3.1025 7.5775 -2.125 7.875 C1 9 1 9 3 11 C3.55401662 16.20775623 3.55401662 16.20775623 1.828125 18.67578125 C-0.70198703 20.50849061 -2.47064199 20.33233976 -5.5625 20.25 C-6.53316406 20.23453125 -7.50382813 20.2190625 -8.50390625 20.203125 C-11 20 -11 20 -13 19 C-12.67 17.35 -12.34 15.7 -12 14 C-9.36 14.33 -6.72 14.66 -4 15 C-4 14.34 -4 13.68 -4 13 C-4.94875 12.731875 -5.8975 12.46375 -6.875 12.1875 C-10 11 -10 11 -12 8 C-11.8125 4.9375 -11.8125 4.9375 -11 2 C-6.94641576 -0.70238949 -4.81689896 -0.22937614 0 0 Z " fill="#3979DF" transform="translate(240,258)"/>
<path d="M0 0 C0.02886984 3.97915159 0.04675406 7.95827653 0.0625 11.9375 C0.07087891 13.07380859 0.07925781 14.21011719 0.08789062 15.38085938 C0.09272461 17.00024414 0.09272461 17.00024414 0.09765625 18.65234375 C0.10551147 20.15269165 0.10551147 20.15269165 0.11352539 21.68334961 C0 24 0 24 -1 25 C-2.66617115 25.04063832 -4.33388095 25.042721 -6 25 C-5.814375 23.72125 -5.62875 22.4425 -5.4375 21.125 C-4.87451278 16.05007231 -4.91145353 11.00731378 -6 6 C-8.76223278 3.23776722 -11.20706617 3.42143709 -15 3 C-15.33 4.65 -15.66 6.3 -16 8 C-16.66 8 -17.32 8 -18 8 C-18 8.99 -18 9.98 -18 11 C-17.01 11 -16.02 11 -15 11 C-15 12.32 -15 13.64 -15 15 C-13.02 15 -11.04 15 -9 15 C-9.33 15.99 -9.66 16.98 -10 18 C-12.75 18.3125 -12.75 18.3125 -16 18 C-18.50806657 15.88794394 -19.75114713 14.28235407 -20.3828125 11.02734375 C-20.56574496 7.76504827 -20.23158769 5.41054181 -18.625 2.5625 C-13.1098043 -0.72035458 -6.2485793 -0.03643486 0 0 Z " fill="#266FE5" transform="translate(321,259)"/>
<path d="M0 0 C1.32 0.66 2.64 1.32 4 2 C5.25412388 7.16370278 5.11973447 12.3888631 5.01953125 17.671875 C4.9983448 18.87822601 4.9983448 18.87822601 4.97673035 20.10894775 C4.94381702 21.79649622 4.90749625 23.48398137 4.86791992 25.17138672 C4.81236634 27.75621899 4.7840399 30.34052441 4.75585938 32.92578125 C4.7204311 34.57034957 4.68337888 36.21488389 4.64453125 37.859375 C4.64016556 38.6312616 4.63579987 39.40314819 4.63130188 40.19842529 C4.52374304 43.56373998 4.46146788 45.49903631 2.1315918 48.02832031 C-0.62218731 49.28362221 -2.15609086 48.86897224 -5 48 C-5 47.67 -5 47.34 -5 47 C-3.35 47 -1.7 47 0 47 C0 31.49 0 15.98 0 0 Z " fill="#35B1FD" transform="translate(90,223)"/>
<path d="M0 0 C2.31 0 4.62 0 7 0 C7.33 0.66 7.66 1.32 8 2 C8.66 1.34 9.32 0.68 10 0 C13.625 0.375 13.625 0.375 17 1 C16.34 2.65 15.68 4.3 15 6 C12.69 6.33 10.38 6.66 8 7 C7.67 11.29 7.34 15.58 7 20 C4.69 20 2.38 20 0 20 C0 13.4 0 6.8 0 0 Z " fill="#3D7EE0" transform="translate(185,258)"/>
<path d="M0 0 C6.625 -0.125 6.625 -0.125 10 1 C12.31 1 14.62 1 17 1 C17 7.27 17 13.54 17 20 C15.02 20 13.04 20 11 20 C12.32 19.67 13.64 19.34 15 19 C15 13.72 15 8.44 15 3 C13.35 3 11.7 3 10 3 C10.391875 3.886875 10.78375 4.77375 11.1875 5.6875 C12 9 12 9 10.6875 11.8125 C9 14 9 14 8 15 C5.5625 15.1875 5.5625 15.1875 3 15 C0.50494038 12.50494038 0.64051624 11.32671112 0.375 7.875 C0.26285156 6.50988281 0.26285156 6.50988281 0.1484375 5.1171875 C0.09945313 4.41851562 0.05046875 3.71984375 0 3 C0.33 3.66 0.66 4.32 1 5 C3.31 5 5.62 5 8 5 C7.67 4.34 7.34 3.68 7 3 C5.10466658 2.53476937 5.10466658 2.53476937 2.9375 2.375 C1.638125 2.25125 0.33875 2.1275 -1 2 C-0.67 1.34 -0.34 0.68 0 0 Z " fill="#4D85D6" transform="translate(356,258)"/>
<path d="M0 0 C1.65 0 3.3 0 5 0 C5 10.23 5 20.46 5 31 C3.35 31 1.7 31 0 31 C0 20.77 0 10.54 0 0 Z " fill="#2070EB" transform="translate(378,246)"/>
<path d="M0 0 C5 0 5 0 7.8125 2.0625 C10.55253442 5.74197479 10.6424782 7.50265257 10 12 C8.9375 14.875 8.9375 14.875 7 17 C4.69 17.33 2.38 17.66 0 18 C0 12.06 0 6.12 0 0 Z " fill="#FAFCFD" transform="translate(420,253)"/>
<path d="M0 0 C1.32 0.33 2.64 0.66 4 1 C4 3.31 4 5.62 4 8 C4.99 7.01 5.98 6.02 7 5 C7 6.98 7 8.96 7 11 C6.01 11 5.02 11 4 11 C4 12.98 4 14.96 4 17 C4.99 17 5.98 17 7 17 C7.66 21.62 8.32 26.24 9 31 C11.64 31 14.28 31 17 31 C17 31.33 17 31.66 17 32 C10.375 33.125 10.375 33.125 7 32 C5.3125 29.9375 5.3125 29.9375 4 28 C3.01 28.99 2.02 29.98 1 31 C1 24.4 1 17.8 1 11 C-0.65 11 -2.3 11 -4 11 C-3.67 10.01 -3.34 9.02 -3 8 C-1.68 8 -0.36 8 1 8 C1.20970559 3.85906302 1.20970559 3.85906302 0 0 Z " fill="#E6F5FD" transform="translate(331,247)"/>
<path d="M0 0 C1.051875 0.185625 2.10375 0.37125 3.1875 0.5625 C6.57119882 0.95079331 8.76425888 0.88247485 12 0 C12 0.66 12 1.32 12 2 C12.66 2.33 13.32 2.66 14 3 C13.01 3.33 12.02 3.66 11 4 C10.61199292 8.12319206 10.61199292 8.12319206 12.25 11.75 C14.09419396 13.0672814 15.93341837 14.07360134 18 15 C18 15.66 18 16.32 18 17 C15.36 16.67 12.72 16.34 10 16 C9.67 17.65 9.34 19.3 9 21 C9.66 21.33 10.32 21.66 11 22 C8.36 21.67 5.72 21.34 3 21 C3.31710938 20.48953125 3.63421875 19.9790625 3.9609375 19.453125 C5.33976273 16.19785341 5.4293573 13.27156868 5.625 9.75 C5.69976562 8.48671875 5.77453125 7.2234375 5.8515625 5.921875 C5.90054688 4.95765625 5.94953125 3.9934375 6 3 C4.02 3 2.04 3 0 3 C0 2.01 0 1.02 0 0 Z " fill="#E6F5FC" transform="translate(218,256)"/>
<path d="M0 0 C12.71428571 -0.57142857 12.71428571 -0.57142857 19 4 C18.67 5.32 18.34 6.64 18 8 C18.66 8 19.32 8 20 8 C20 10.64 20 13.28 20 16 C19.34 16 18.68 16 18 16 C18 16.66 18 17.32 18 18 C17.34 18 16.68 18 16 18 C15.91363281 17.16855469 15.82726562 16.33710938 15.73828125 15.48046875 C15.59777344 14.39378906 15.45726562 13.30710937 15.3125 12.1875 C15.18488281 11.10855469 15.05726563 10.02960938 14.92578125 8.91796875 C14.25338767 5.82141906 14.25338767 5.82141906 11.55859375 4.16015625 C9.33473309 3.15177974 7.41455445 2.34493635 5 2 C3.00383446 3.99616554 3.59016573 7.81701963 3.4375 10.5625 C3.39431641 11.27341797 3.35113281 11.98433594 3.30664062 12.71679688 C3.20028223 14.47761912 3.09961154 16.2387832 3 18 C2.01 18.33 1.02 18.66 0 19 C0 12.73 0 6.46 0 0 Z " fill="#216EEC" transform="translate(415,249)"/>
<path d="M0 0 C2.31 0 4.62 0 7 0 C7 6.6 7 13.2 7 20 C4.69 20 2.38 20 0 20 C0 13.4 0 6.8 0 0 Z " fill="#397ADF" transform="translate(289,258)"/>
<path d="M0 0 C5 0 5 0 7.25 1 C9.40372411 3.46139898 9.97270993 5.68281565 10.23046875 8.92578125 C9.79410321 12.85307111 7.94254068 14.44126897 5 17 C3.35 17 1.7 17 0 17 C0 11.39 0 5.78 0 0 Z " fill="#F5FCFB" transform="translate(269,254)"/>
<path d="M0 0 C0.33 0 0.66 0 1 0 C1 9.9 1 19.8 1 30 C10.55374237 29.39760342 10.55374237 29.39760342 20 28 C20.33 27.01 20.66 26.02 21 25 C21.66 25 22.32 25 23 25 C23.66 20.05 24.32 15.1 25 10 C25.33 10 25.66 10 26 10 C26 14.95 26 19.9 26 25 C25.34 25 24.68 25 24 25 C23.71125 25.61875 23.4225 26.2375 23.125 26.875 C22 29 22 29 20 31 C17.66162109 31.22705078 17.66162109 31.22705078 14.7734375 31.1953125 C13.84450684 31.19031738 12.91557617 31.18532227 11.95849609 31.18017578 C10.77594238 31.16196777 9.59338867 31.14375977 8.375 31.125 C4.62125 31.08375 0.8675 31.0425 -3 31 C-3 21.1 -3 11.2 -3 1 C-2.67 1 -2.34 1 -2 1 C-1.67 9.25 -1.34 17.5 -1 26 C-0.67 17.42 -0.34 8.84 0 0 Z " fill="#E7FEFF" transform="translate(412,247)"/>
<path d="M0 0 C0 0.99 0 1.98 0 3 C-1.98 3.99 -1.98 3.99 -4 5 C-4.33 12.26 -4.66 19.52 -5 27 C-6.32 27 -7.64 27 -9 27 C-9 18.42 -9 9.84 -9 1 C-6.04335481 -0.4783226 -3.25770263 -0.06032783 0 0 Z " fill="#1F70E9" transform="translate(179,249)"/>
<path d="M0 0 C4.29 0 8.58 0 13 0 C13 0.33 13 0.66 13 1 C13.84304687 1.12117187 14.68609375 1.24234375 15.5546875 1.3671875 C16.65039062 1.53476563 17.74609375 1.70234375 18.875 1.875 C19.96554688 2.03742188 21.05609375 2.19984375 22.1796875 2.3671875 C25 3 25 3 27 5 C19.74 4.67 12.48 4.34 5 4 C5 20.5 5 37 5 54 C4.67 54 4.34 54 4 54 C3.98969254 53.45178085 3.97938507 52.90356171 3.96876526 52.33872986 C3.86024271 46.61185883 3.74568462 40.8851307 3.62768555 35.15844727 C3.58448277 33.02371218 3.54279789 30.88894579 3.50268555 28.75415039 C3.44462646 25.67845241 3.38103616 22.60290984 3.31640625 19.52734375 C3.29133751 18.10505714 3.29133751 18.10505714 3.26576233 16.65403748 C3.58319009 7.62698212 3.58319009 7.62698212 0 0 Z " fill="#5ABCF4" transform="translate(91,223)"/>
<path d="M0 0 C2.64 0 5.28 0 8 0 C8 2.31 8 4.62 8 7 C9.89179203 7.6814823 9.89179203 7.6814823 12 8 C12.66 7.34 13.32 6.68 14 6 C16 6 16 6 19 7 C18.175 7.804375 17.35 8.60875 16.5 9.4375 C13.65144616 12.83478376 13.499884 15.52552234 13.62890625 19.8515625 C14.03515589 22.2035341 14.83351305 23.92936855 16 26 C14.35 26.33 12.7 26.66 11 27 C10.67 25.35 10.34 23.7 10 22 C9.01 21.67 8.02 21.34 7 21 C7 18.03 7 15.06 7 12 C7.99 12 8.98 12 10 12 C10 10.68 10 9.36 10 8 C9.01 8 8.02 8 7 8 C7 5.69 7 3.38 7 1 C4.69 1 2.38 1 0 1 C0 0.67 0 0.34 0 0 Z " fill="#BEDBF8" transform="translate(338,251)"/>
<path d="M0 0 C1.98 0 3.96 0 6 0 C6 6.27 6 12.54 6 19 C4.02 19 2.04 19 0 19 C0 12.73 0 6.46 0 0 Z " fill="#2E71D9" transform="translate(326,259)"/>
<path d="M0 0 C1.32 0 2.64 0 4 0 C4 8.91 4 17.82 4 27 C2.68 27 1.36 27 0 27 C0 18.09 0 9.18 0 0 Z " fill="#1C71ED" transform="translate(403,249)"/>
<path d="M0 0 C0.33 0 0.66 0 1 0 C1 10.23 1 20.46 1 31 C0.34 31 -0.32 31 -1 31 C-1.33 29.02 -1.66 27.04 -2 25 C-2.99 25 -3.98 25 -5 25 C-5 22.36 -5 19.72 -5 17 C-3.68 17 -2.36 17 -1 17 C-1 15.02 -1 13.04 -1 11 C-2.32 11 -3.64 11 -5 11 C-5 9.02 -5 7.04 -5 5 C-4.71125 5.639375 -4.4225 6.27875 -4.125 6.9375 C-3.17176549 9.15206079 -3.17176549 9.15206079 -1 10 C-1.01160156 9.36191406 -1.02320313 8.72382813 -1.03515625 8.06640625 C-1.04869141 6.82697266 -1.04869141 6.82697266 -1.0625 5.5625 C-1.07410156 4.73878906 -1.08570313 3.91507813 -1.09765625 3.06640625 C-1 1 -1 1 0 0 Z " fill="#E8FDFE" transform="translate(260,247)"/>
<path d="M0 0 C0.66 1.32 1.32 2.64 2 4 C1.34 4 0.68 4 0 4 C0 5.98 0 7.96 0 10 C0.99 10 1.98 10 3 10 C3.33 13.96 3.66 17.92 4 22 C3.34 21.67 2.68 21.34 2 21 C1.375 17.9375 1.375 17.9375 1 15 C-0.051875 14.8453125 -0.051875 14.8453125 -1.125 14.6875 C-4.39137647 13.90640997 -7.0471852 12.57941257 -10 11 C-10 10.34 -10 9.68 -10 9 C-8.02 9 -6.04 9 -4 9 C-3.67 7.68 -3.34 6.36 -3 5 C-5.97 4.67 -8.94 4.34 -12 4 C-12 3.67 -12 3.34 -12 3 C-4.25 2.875 -4.25 2.875 -2 4 C-1.34 2.68 -0.68 1.36 0 0 Z " fill="#E3F5FD" transform="translate(245,254)"/>
<path d="M0 0 C2.64 0 5.28 0 8 0 C8.33 0.66 8.66 1.32 9 2 C6.69 2 4.38 2 2 2 C2 10.58 2 19.16 2 28 C7.445 26.515 7.445 26.515 13 25 C10 29 10 29 7 30 C4.69 30 2.38 30 0 30 C0 20.1 0 10.2 0 0 Z " fill="#6DBFEB" transform="translate(107,237)"/>
<path d="M0 0 C3.96080657 6.19470147 2.81465964 16.23219914 1.3125 23.1796875 C-1.74020735 32.15973497 -6.92320237 39.72738392 -14 46 C-14.66 46 -15.32 46 -16 46 C-15 43 -15 43 -11.9375 40.6875 C-10.968125 39.800625 -9.99875 38.91375 -9 38 C-8.95919217 36.00041636 -8.95745644 33.99954746 -9 32 C-6.625 29.625 -6.625 29.625 -4 28 C-3.34 28 -2.68 28 -2 28 C-0.33042768 21.48603871 0.26029841 15.64517871 0.125 8.9375 C0.11597656 8.07189453 0.10695312 7.20628906 0.09765625 6.31445312 C0.07439723 4.20951221 0.03854008 2.10471658 0 0 Z " fill="#53B5E9" transform="translate(144,238)"/>
<path d="M0 0 C0.33 0 0.66 0 1 0 C1 10.56 1 21.12 1 32 C-0.32 32 -1.64 32 -3 32 C-3.05791844 28.87507749 -3.09356746 25.75029234 -3.125 22.625 C-3.14175781 21.73554688 -3.15851563 20.84609375 -3.17578125 19.9296875 C-3.18222656 19.07890625 -3.18867188 18.228125 -3.1953125 17.3515625 C-3.20578613 16.56604004 -3.21625977 15.78051758 -3.22705078 14.97119141 C-3 13 -3 13 -1 11 C-0.53709779 8.33757179 -0.53709779 8.33757179 -0.375 5.375 C-0.30023438 4.37210938 -0.22546875 3.36921875 -0.1484375 2.3359375 C-0.09945313 1.56507813 -0.05046875 0.79421875 0 0 Z " fill="#E6F8FE" transform="translate(376,246)"/>
<path d="M0 0 C1.32 0 2.64 0 4 0 C4 3.63 4 7.26 4 11 C3.01 11 2.02 11 1 11 C1 11.66 1 12.32 1 13 C0.34 13 -0.32 13 -1 13 C-1 13.99 -1 14.98 -1 16 C-4.63 15.67 -8.26 15.34 -12 15 C-12.33 13.02 -12.66 11.04 -13 9 C-11.0625 9.3125 -11.0625 9.3125 -9 10 C-8.67 10.99 -8.34 11.98 -8 13 C-4.18186553 12.72459296 -4.18186553 12.72459296 -1 11 C-0.76636119 9.15108054 -0.58696365 7.29511969 -0.4375 5.4375 C-0.35371094 4.42558594 -0.26992187 3.41367187 -0.18359375 2.37109375 C-0.12300781 1.58863281 -0.06242188 0.80617188 0 0 Z " fill="#1E70EC" transform="translate(219,261)"/>
<path d="M0 0 C1.98 0 3.96 0 6 0 C6.76568459 12.57424249 6.76568459 12.57424249 4.1875 17.375 C-0.4155394 19.72164754 -4.92771366 19.94222037 -10 19 C-10.99 18.01 -11.98 17.02 -13 16 C-8.71 16.66 -4.42 17.32 0 18 C0 17.01 0 16.02 0 15 C0.66 15 1.32 15 2 15 C2 14.34 2 13.68 2 13 C2.99 13 3.98 13 5 13 C5 9.37 5 5.74 5 2 C3.68 2 2.36 2 1 2 C1.08701172 3.13888672 1.08701172 3.13888672 1.17578125 4.30078125 C1.31039014 7.26602282 1.35177632 10.051159 1 13 C-1.25 15.25 -1.25 15.25 -4 16 C-6.3125 15.6875 -6.3125 15.6875 -8 15 C-7.67 14.01 -7.34 13.02 -7 12 C-5.35 12.33 -3.7 12.66 -2 13 C-0.71553081 10.43106162 -0.67022856 8.23423663 -0.4375 5.375 C-0.35371094 4.37210937 -0.26992187 3.36921875 -0.18359375 2.3359375 C-0.12300781 1.56507813 -0.06242188 0.79421875 0 0 Z " fill="#3673D2" transform="translate(218,259)"/>
<path d="M0 0 C8.91 0 17.82 0 27 0 C27 0.66 27 1.32 27 2 C18.75 2 10.5 2 2 2 C2 4.64 2 7.28 2 10 C4.31 10 6.62 10 9 10 C9.33 10.66 9.66 11.32 10 12 C6.7 12 3.4 12 0 12 C0 8.04 0 4.08 0 0 Z " fill="#4C85D6" transform="translate(63,211)"/>
<path d="M0 0 C0.598125 0.825 1.19625 1.65 1.8125 2.5 C3.83614956 4.58835929 4.83972819 4.98086643 7.78125 5.33203125 C10.53563439 5.31428393 13.25442969 5.21637594 16 5 C15.125 8.875 15.125 8.875 14 10 C11.81360547 10.07258946 9.62499611 10.08373783 7.4375 10.0625 C5.64119141 10.04896484 5.64119141 10.04896484 3.80859375 10.03515625 C2.88175781 10.02355469 1.95492188 10.01195312 1 10 C1.99 11.65 2.98 13.3 4 15 C3.01 15.495 3.01 15.495 2 16 C2 15.34 2 14.68 2 14 C0.68 13.34 -0.64 12.68 -2 12 C-2 11.01 -2 10.02 -2 9 C-1.34 9 -0.68 9 0 9 C1.10844919 5.67465243 0.84454356 3.37817425 0 0 Z " fill="#D4E7FA" transform="translate(299,272)"/>
<path d="M0 0 C2.31 0 4.62 0 7 0 C7 2.31 7 4.62 7 7 C8.32 7 9.64 7 11 7 C11 8.98 11 10.96 11 13 C9.68 13 8.36 13 7 13 C7 15.64 7 18.28 7 21 C6.34 21 5.68 21 5 21 C5 19.02 5 17.04 5 15 C4.34 15 3.68 15 3 15 C3 15.99 3 16.98 3 18 C2.34 18 1.68 18 1 18 C0.95745644 16.00045254 0.95919217 13.99958364 1 12 C2 11 2 11 5.5625 10.9375 C6.696875 10.958125 7.83125 10.97875 9 11 C9 10.34 9 9.68 9 9 C8.01 9 7.02 9 6 9 C6 6.36 6 3.72 6 1 C4.02 1 2.04 1 0 1 C0 0.67 0 0.34 0 0 Z " fill="#4C86DF" transform="translate(248,251)"/>
<path d="M0 0 C0.33 0.66 0.66 1.32 1 2 C0.39031953 3.68834592 -0.28837557 5.35202764 -1 7 C-1.67795528 8.99620166 -2.34733531 10.99538701 -3 13 C-3.99 13 -4.98 13 -6 13 C-6 20.92 -6 28.84 -6 37 C-8.76009014 34.23990986 -8.31153114 32.34682415 -8.37988281 28.57495117 C-8.37827148 27.72521729 -8.37666016 26.8754834 -8.375 26 C-8.37338867 25.13802002 -8.37177734 24.27604004 -8.37011719 23.38793945 C-8.19181401 14.12578879 -5.45604413 7.40463132 0 0 Z " fill="#57B5EA" transform="translate(71,224)"/>
<path d="M0 0 C1.32 0 2.64 0 4 0 C4 0.66 4 1.32 4 2 C4.99 2.33 5.98 2.66 7 3 C8.68306823 6.36613647 8.26885525 10.11433508 8.3125 13.8125 C8.34150391 14.62009766 8.37050781 15.42769531 8.40039062 16.25976562 C8.44343882 20.30298501 8.34715399 22.44114869 6.16796875 25.94921875 C1.87611656 30.00907893 1.87611656 30.00907893 -1.26171875 29.9765625 C-2.06222656 29.86054688 -2.86273438 29.74453125 -3.6875 29.625 C-4.49574219 29.51414062 -5.30398437 29.40328125 -6.13671875 29.2890625 C-6.75160156 29.19367188 -7.36648437 29.09828125 -8 29 C-8 28.67 -8 28.34 -8 28 C-7.39671875 27.91363281 -6.7934375 27.82726562 -6.171875 27.73828125 C-0.77686683 26.80021731 -0.77686683 26.80021731 3.5 23.5 C6.71610649 18.13982252 6.6190676 13.18242175 6 7 C4.33743577 3.87184813 4.33743577 3.87184813 2 2 C1.34 1.34 0.68 0.68 0 0 Z " fill="#C5F0FE" transform="translate(116,239)"/>
<path d="M0 0 C0.51652556 5.4235184 -1.02893301 7.58841568 -4 12 C-4.79682803 15.73225344 -4.79682803 15.73225344 -5 19 C-5.33 18.34 -5.66 17.68 -6 17 C-6.66 17 -7.32 17 -8 17 C-8.91241904 8.60236553 -8.91241904 8.60236553 -6.734375 4.77734375 C-2.69276181 0 -2.69276181 0 0 0 Z " fill="#F0F9FA" transform="translate(304,253)"/>
<path d="M0 0 C1.65 0 3.3 0 5 0 C5 10.23 5 20.46 5 31 C3.35 31 1.7 31 0 31 C0 20.77 0 10.54 0 0 Z M2 2 C0.70454552 3.07029129 0.70454552 3.07029129 0.88647461 5.59204102 C0.89171143 6.71795654 0.89694824 7.84387207 0.90234375 9.00390625 C0.90556641 10.21884766 0.90878906 11.43378906 0.91210938 12.68554688 C0.92048828 13.96494141 0.92886719 15.24433594 0.9375 16.5625 C0.94201172 17.84576172 0.94652344 19.12902344 0.95117188 20.45117188 C0.96300455 23.63416022 0.97948932 26.81705762 1 30 C1.99 30 2.98 30 4 30 C4 20.76 4 11.52 4 2 C3.34 2 2.68 2 2 2 Z " fill="#276DD4" transform="translate(378,246)"/>
<path d="M0 0 C0.99 0 1.98 0 3 0 C3.02710123 2.5625718 3.04688771 5.12485365 3.0625 7.6875 C3.07087891 8.40873047 3.07925781 9.12996094 3.08789062 9.87304688 C3.10543632 13.71555382 2.93524221 17.26639526 2 21 C1.01 21 0.02 21 -1 21 C-1.18451025 6.21867882 -1.18451025 6.21867882 0 0 Z " fill="#1B72E9" transform="translate(264,256)"/>
<path d="M0 0 C13.92857143 0 13.92857143 0 21 5 C21 5.66 21 6.32 21 7 C18.525 6.505 18.525 6.505 16 6 C16 5.34 16 4.68 16 4 C11.21460555 2.40486852 6.0268246 2.41890205 1 2 C1 11.24 1 20.48 1 30 C0.67 30 0.34 30 0 30 C0 20.1 0 10.2 0 0 Z " fill="#3572CE" transform="translate(262,247)"/>
<path d="M0 0 C0.33 0 0.66 0 1 0 C1.33 2.31 1.66 4.62 2 7 C2.99 6.67 3.98 6.34 5 6 C6.22520264 2.99152582 6.22520264 2.99152582 7 0 C7.33 0 7.66 0 8 0 C8.05410687 1.77049689 8.09284119 3.54146849 8.125 5.3125 C8.14820313 6.29863281 8.17140625 7.28476562 8.1953125 8.30078125 C8 11 8 11 6 14 C1.125 13.125 1.125 13.125 0 12 C-0.07244053 9.98035801 -0.08377188 7.95832876 -0.0625 5.9375 C-0.05347656 4.83277344 -0.04445312 3.72804688 -0.03515625 2.58984375 C-0.02355469 1.73519531 -0.01195312 0.88054687 0 0 Z " fill="#E0EDFD" transform="translate(210,259)"/>
<path d="M0 0 C5.66400466 1.78011575 8.8672325 4.86423311 11.63671875 10.0859375 C13.45621817 14.50878318 13.33572353 18.72095117 13.1875 23.4375 C13.17396484 24.26443359 13.16042969 25.09136719 13.14648438 25.94335938 C13.11146992 27.9625264 13.05767562 29.98135318 13 32 C12.34 32 11.68 32 11 32 C11 34.31 11 36.62 11 39 C9.68 38.67 8.36 38.34 7 38 C7.28875 37.41734375 7.5775 36.8346875 7.875 36.234375 C11.19497497 28.90276362 12.40767338 21.83643041 10.4921875 13.89453125 C8.37210203 8.3749984 4.23322583 4.01042447 0 0 Z " fill="#55B3E7" transform="translate(124,230)"/>
<path d="M0 0 C2.5 0.25 2.5 0.25 4.5 2.25 C4.8125 4.75 4.8125 4.75 4.5 7.25 C1.5 9.25 1.5 9.25 -1.1875 8.875 C-1.950625 8.66875 -2.71375 8.4625 -3.5 8.25 C-4.125 5.375 -4.125 5.375 -4.5 2.25 C-2.5 0.25 -2.5 0.25 0 0 Z " fill="#E4F2FD" transform="translate(310.5,263.75)"/>
<path d="M0 0 C13.88888889 0 13.88888889 0 19 3 C19.99 4.485 19.99 4.485 21 6 C16.25 4.125 16.25 4.125 14 3 C10.04 3 6.08 3 2 3 C1.67 11.91 1.34 20.82 1 30 C0.67 30 0.34 30 0 30 C0 20.1 0 10.2 0 0 Z " fill="#437ACB" transform="translate(413,247)"/>
<path d="M0 0 C0.99 0.33 1.98 0.66 3 1 C2.34 2.65 1.68 4.3 1 6 C0.34 6 -0.32 6 -1 6 C-1 6.99 -1 7.98 -1 9 C-0.01 9 0.98 9 2 9 C2 10.32 2 11.64 2 13 C3.98 13 5.96 13 8 13 C7.67 13.99 7.34 14.98 7 16 C4.25 16.3125 4.25 16.3125 1 16 C-1.52190705 13.8762888 -2.77797468 12.28225858 -3.34765625 8.9921875 C-3.48301517 5.80242521 -3.44770609 3.59694145 -1.5 1 C-1.005 0.67 -0.51 0.34 0 0 Z " fill="#206FED" transform="translate(304,261)"/>
<path d="M0 0 C0.93972656 0.00322266 1.87945312 0.00644531 2.84765625 0.00976562 C3.75644531 -0.00634766 4.66523437 -0.02246094 5.6015625 -0.0390625 C13.03310544 -0.04434809 21.42837757 0.51583667 26.97265625 6.00976562 C27.90078125 7.15445313 27.90078125 7.15445313 28.84765625 8.32226562 C22.84765625 6.32226562 22.84765625 6.32226562 20.796875 5.55664062 C10.9684919 1.99537925 1.20510498 2.17615741 -9.15234375 2.32226562 C-6.2716693 -0.55840883 -3.94219023 0.03119719 0 0 Z " fill="#4DB1EC" transform="translate(100.15234375,208.677734375)"/>
<path d="M0 0 C2.5625 0.1875 2.5625 0.1875 4.5625 2.1875 C4.8125 4.6875 4.8125 4.6875 4.5625 7.1875 C2.5625 9.1875 2.5625 9.1875 0 9.375 C-2.4375 9.1875 -2.4375 9.1875 -3.4375 8.1875 C-3.5625 4.6875 -3.5625 4.6875 -3.4375 1.1875 C-2.4375 0.1875 -2.4375 0.1875 0 0 Z " fill="#E2F1FD" transform="translate(361.4375,263.8125)"/>
<path d="M0 0 C0.33 0 0.66 0 1 0 C1.33 7.59 1.66 15.18 2 23 C3.32 23 4.64 23 6 23 C6 15.74 6 8.48 6 1 C6.33 1 6.66 1 7 1 C7 8.92 7 16.84 7 25 C4.69 25 2.38 25 0 25 C0 16.75 0 8.5 0 0 Z " fill="#4882D7" transform="translate(168,253)"/>
<path d="M0 0 C5 0 5 0 7.8125 2.0625 C10.55253442 5.74197479 10.6424782 7.50265257 10 12 C8.9375 14.875 8.9375 14.875 7 17 C4.69 17.33 2.38 17.66 0 18 C0 12.06 0 6.12 0 0 Z M1 1 C1 6.28 1 11.56 1 17 C4.79969321 17.37895458 4.79969321 17.37895458 6.71875 15.8125 C8.85483135 12.79072638 8.52391798 9.91154074 8.4296875 6.3203125 C8.19638249 3.73997817 8.19638249 3.73997817 5.625 1.875 C3.14493773 0.89459074 3.14493773 0.89459074 1 1 Z " fill="#C6E6FC" transform="translate(420,253)"/>
<path d="M0 0 C0.33 0 0.66 0 1 0 C1 4.95 1 9.9 1 15 C0.34 15 -0.32 15 -1 15 C-1.433125 15.928125 -1.433125 15.928125 -1.875 16.875 C-3 19 -3 19 -5 21 C-6.97119141 21.22705078 -6.97119141 21.22705078 -9.3515625 21.1953125 C-10.20234375 21.18886719 -11.053125 21.18242187 -11.9296875 21.17578125 C-13.26386719 21.15064453 -13.26386719 21.15064453 -14.625 21.125 C-15.97078125 21.11146484 -15.97078125 21.11146484 -17.34375 21.09765625 C-19.56276586 21.0740497 -21.78125077 21.0411231 -24 21 C-24 20.67 -24 20.34 -24 20 C-23.04738281 19.93941406 -22.09476562 19.87882812 -21.11328125 19.81640625 C-19.23189453 19.69072266 -19.23189453 19.69072266 -17.3125 19.5625 C-16.07113281 19.48128906 -14.82976562 19.40007812 -13.55078125 19.31640625 C-10.61819663 19.05508683 -7.86558383 18.65201621 -5 18 C-4.67 17.01 -4.34 16.02 -4 15 C-3.34 15 -2.68 15 -2 15 C-1.34 10.05 -0.68 5.1 0 0 Z " fill="#C3E1FB" transform="translate(437,257)"/>
<path d="M0 0 C2.56695636 0.39491636 4.67123994 0.83561997 7 2 C6.125 6.875 6.125 6.875 5 8 C2.5625 8.1875 2.5625 8.1875 0 8 C-0.66 7.34 -1.32 6.68 -2 6 C-1.44444444 1.44444444 -1.44444444 1.44444444 0 0 Z " fill="#507ED3" transform="translate(390,270)"/>
<path d="M0 0 C1.98 0 3.96 0 6 0 C6 2.64 6 5.28 6 8 C6.99 8 7.98 8 9 8 C9 8.66 9 9.32 9 10 C4.545 10.495 4.545 10.495 0 11 C-0.33 10.01 -0.66 9.02 -1 8 C-0.360625 7.731875 0.27875 7.46375 0.9375 7.1875 C3.33131686 6.11332248 3.33131686 6.11332248 4 3 C3.01 3 2.02 3 1 3 C0.67 3.99 0.34 4.98 0 6 C0 4.02 0 2.04 0 0 Z " fill="#1972EB" transform="translate(248,252)"/>
<path d="M0 0 C3.4374823 -0.02901394 6.87493312 -0.04680335 10.3125 -0.0625 C11.28896484 -0.07087891 12.26542969 -0.07925781 13.27148438 -0.08789062 C14.20927734 -0.09111328 15.14707031 -0.09433594 16.11328125 -0.09765625 C16.97735596 -0.10289307 17.84143066 -0.10812988 18.73168945 -0.11352539 C21 0 21 0 24 1 C24 1.66 24 2.32 24 3 C25.32 3.33 26.64 3.66 28 4 C27.01 4.495 27.01 4.495 26 5 C24.78957031 4.55527344 24.78957031 4.55527344 23.5546875 4.1015625 C18.74529719 2.61118001 14.13303543 2.53786294 9.125 2.375 C8.15046875 2.33632812 7.1759375 2.29765625 6.171875 2.2578125 C3.7814328 2.16406967 1.39098756 2.0783617 -1 2 C-0.67 1.34 -0.34 0.68 0 0 Z " fill="#C7F0FD" transform="translate(94,207)"/>
<path d="M0 0 C0.33 0.66 0.66 1.32 1 2 C-0.98567708 2.16276042 -2.97135417 2.32552083 -4.95703125 2.48828125 C-7.53758686 3.13465369 -8.47220343 3.82288988 -10 6 C-10.36213568 8.51289675 -10.36213568 8.51289675 -10.1875 11.1875 C-10.16042969 12.08855469 -10.13335937 12.98960937 -10.10546875 13.91796875 C-10.07066406 14.60503906 -10.03585937 15.29210937 -10 16 C-9.01 16.33 -8.02 16.66 -7 17 C-6.67 17.99 -6.34 18.98 -6 20 C-9.37177797 18.60478153 -11.25017709 17.23717239 -13 14 C-13.56920689 9.6089754 -13.29015343 7.52227617 -11.125 3.625 C-7.67980909 -0.63082407 -5.30410343 -0.09822414 0 0 Z " fill="#4982D6" transform="translate(312,258)"/>
<path d="M0 0 C2.31 0 4.62 0 7 0 C7 1.98 7 3.96 7 6 C6.67 4.68 6.34 3.36 6 2 C5.01 2.66 4.02 3.32 3 4 C3.33 5.32 3.66 6.64 4 8 C3.34 8 2.68 8 2 8 C2 8.66 2 9.32 2 10 C0.68 10.33 -0.64 10.66 -2 11 C-1.34 11.33 -0.68 11.66 0 12 C-0.99 12 -1.98 12 -3 12 C-3 10.02 -3 8.04 -3 6 C-2.01 6 -1.02 6 0 6 C0 4.02 0 2.04 0 0 Z " fill="#4987DB" transform="translate(338,252)"/>
<path d="M0 0 C1.4540625 0.0309375 1.4540625 0.0309375 2.9375 0.0625 C2.9375 0.3925 2.9375 0.7225 2.9375 1.0625 C1.2875 1.0625 -0.3625 1.0625 -2.0625 1.0625 C-1.7325 10.9625 -1.4025 20.8625 -1.0625 31.0625 C0.9175 31.3925 2.8975 31.7225 4.9375 32.0625 C4.9375 32.3925 4.9375 32.7225 4.9375 33.0625 C2.60455225 33.10491723 0.27047433 33.10342937 -2.0625 33.0625 C-5.73077252 29.39422748 -4.11633046 18.11315508 -4.13061523 12.93212891 C-4.12229152 9.97539907 -4.09584447 7.01904337 -4.0625 4.0625 C-4.0625 3.0725 -4.0625 2.0825 -4.0625 1.0625 C-3.0625 0.0625 -3.0625 0.0625 0 0 Z " fill="#E7FEFE" transform="translate(109.0625,235.9375)"/>
<path d="M0 0 C0.66 0 1.32 0 2 0 C2 4.62 2 9.24 2 14 C1.34 14 0.68 14 0 14 C0 15.98 0 17.96 0 20 C-1.98 20.99 -1.98 20.99 -4 22 C-3.68305176 21.42926758 -3.36610352 20.85853516 -3.03955078 20.27050781 C-1.97755931 17.95098676 -1.61964606 16.19646063 -1.3671875 13.671875 C-1.28339844 12.87265625 -1.19960938 12.0734375 -1.11328125 11.25 C-1.03464844 10.425 -0.95601563 9.6 -0.875 8.75 C-0.78863281 7.90953125 -0.70226562 7.0690625 -0.61328125 6.203125 C-0.40188278 4.13611777 -0.20000538 2.06814072 0 0 Z " fill="#F8FBFE" transform="translate(323,264)"/>
<path d="M0 0 C0.66 0 1.32 0 2 0 C2 5.28 2 10.56 2 16 C1.34 14.68 0.68 13.36 0 12 C-0.33 13.98 -0.66 15.96 -1 18 C-1.33 18 -1.66 18 -2 18 C-2.1953125 15.94921875 -2.390625 13.8984375 -2.5859375 11.84765625 C-2.79089844 10.93306641 -2.79089844 10.93306641 -3 10 C-3.66 9.67 -4.32 9.34 -5 9 C-4.67 7.68 -4.34 6.36 -4 5 C-4 5.99 -4 6.98 -4 8 C-3.01 8 -2.02 8 -1 8 C0.06414547 4.80756358 -0.18092625 4.07152658 -1 1 C-0.67 0.67 -0.34 0.34 0 0 Z " fill="#236FE4" transform="translate(341,254)"/>
<path d="M0 0 C6.93 0.495 6.93 0.495 14 1 C14 1.66 14 2.32 14 3 C16.97 3.495 16.97 3.495 20 4 C19.67 5.32 19.34 6.64 19 8 C18.113125 7.360625 17.22625 6.72125 16.3125 6.0625 C11.00081512 2.95670079 5.00511242 3.18060488 -1 3 C-0.67 2.01 -0.34 1.02 0 0 Z " fill="#E8FBFF" transform="translate(262,244)"/>
<path d="M0 0 C-0.33 1.65 -0.66 3.3 -1 5 C-4.31070838 6.00109515 -7.30084769 6.10356134 -10.75 6.0625 C-11.73484375 6.05347656 -12.7196875 6.04445313 -13.734375 6.03515625 C-14.48203125 6.02355469 -15.2296875 6.01195312 -16 6 C-16 5.34 -16 4.68 -16 4 C-10.555 3.505 -10.555 3.505 -5 3 C-5 2.34 -5 1.68 -5 1 C-3 0 -3 0 0 0 Z " fill="#1F6EEA" transform="translate(431,270)"/>
<path d="M0 0 C2.625 0.375 2.625 0.375 5 1 C5.38218767 2.65614657 5.71395102 4.32457024 6 6 C5 7 5 7 1.9375 7.0625 C0.968125 7.041875 -0.00125 7.02125 -1 7 C-1.625 4.625 -1.625 4.625 -2 2 C-1.34 1.34 -0.68 0.68 0 0 Z " fill="#3C7CD2" transform="translate(327,247)"/>
<path d="M0 0 C3.88915611 1.82967117 7.26914241 4.20047816 10.78125 6.66015625 C12.9023523 7.94103317 14.58049568 8.55459125 17 9 C17 9.66 17 10.32 17 11 C18.65 11 20.3 11 22 11 C22 11.66 22 12.32 22 13 C14.205479 11.8499887 8.15063674 8.98359285 2 4 C0.68359375 1.7734375 0.68359375 1.7734375 0 0 Z " fill="#56B5EC" transform="translate(74,278)"/>
<path d="M0 0 C2.00720923 0.28674418 4.0085944 0.61866701 6 1 C6.042721 2.66611905 6.04063832 4.33382885 6 6 C5 7 5 7 2.5 7.125 C0 7 0 7 -1 6 C-1.125 3.5 -1.125 3.5 -1 1 C-0.67 0.67 -0.34 0.34 0 0 Z " fill="#3573D6" transform="translate(290,247)"/>
<path d="M0 0 C1.32 0.33 2.64 0.66 4 1 C4.625 3.3125 4.625 3.3125 5 6 C4.01 7.485 4.01 7.485 3 9 C0.8359375 9.29296875 0.8359375 9.29296875 -1.625 9.1875 C-2.44226563 9.16042969 -3.25953125 9.13335937 -4.1015625 9.10546875 C-4.72804687 9.07066406 -5.35453125 9.03585937 -6 9 C-6 8.34 -6 7.68 -6 7 C-4.02 6.67 -2.04 6.34 0 6 C0 4.02 0 2.04 0 0 Z " fill="#1F6FF1" transform="translate(237,268)"/>
<path d="M0 0 C0.66 0.33 1.32 0.66 2 1 C3.67180617 7.57577093 3.67180617 7.57577093 2.12109375 10.86328125 C0.875 12.5 0.875 12.5 -2 15 C-4.8125 15.375 -4.8125 15.375 -7 15 C-6.67 13.68 -6.34 12.36 -6 11 C-2.535 10.505 -2.535 10.505 1 10 C0.67 6.7 0.34 3.4 0 0 Z " fill="#D0EBFC" transform="translate(276,256)"/>
<path d="M0 0 C2.64 0 5.28 0 8 0 C8.33 0.99 8.66 1.98 9 3 C6.69 3 4.38 3 2 3 C1.67 5.97 1.34 8.94 1 12 C0.34 11.67 -0.32 11.34 -1 11 C-1.0270043 9.54176788 -1.04639787 8.08339325 -1.0625 6.625 C-1.07410156 5.81289063 -1.08570313 5.00078125 -1.09765625 4.1640625 C-1 2 -1 2 0 0 Z " fill="#1B72E7" transform="translate(355,260)"/>
<path d="M0 0 C0.66 0 1.32 0 2 0 C2 1.98 2 3.96 2 6 C3.32 6.33 4.64 6.66 6 7 C6 7.99 6 8.98 6 10 C4.02 10 2.04 10 0 10 C-0.66 7.69 -1.32 5.38 -2 3 C-1.34 3 -0.68 3 0 3 C0 2.01 0 1.02 0 0 Z " fill="#1E71EE" transform="translate(251,266)"/>
<path d="M0 0 C0.53367187 0.26554687 1.06734375 0.53109375 1.6171875 0.8046875 C7.32371371 3.50985737 12.77182518 5.0118136 19 6 C19 6.33 19 6.66 19 7 C12.31627474 7.32633017 6.8320961 7.54997154 1 4 C0.3203125 1.890625 0.3203125 1.890625 0 0 Z " fill="#C9F3FE" transform="translate(81,285)"/>
<path d="M0 0 C0.33 0.66 0.66 1.32 1 2 C0.67 2.66 0.34 3.32 0 4 C-0.66 4 -1.32 4 -2 4 C-2.020625 5.010625 -2.04125 6.02125 -2.0625 7.0625 C-2.66073786 11.50396294 -5.15914596 13.7231971 -8.30859375 16.71484375 C-10 18 -10 18 -12 18 C-11 15 -11 15 -7.9375 12.6875 C-6.968125 11.800625 -5.99875 10.91375 -5 10 C-4.95919217 8.00041636 -4.95745644 5.99954746 -5 4 C-2.5 1.625 -2.5 1.625 0 0 Z " fill="#3BB5FB" transform="translate(140,266)"/>
<path d="M0 0 C0.66 0 1.32 0 2 0 C2.22580354 3.43658708 2.42762697 6.87417218 2.625 10.3125 C2.68945312 11.28896484 2.75390625 12.26542969 2.8203125 13.27148438 C2.871875 14.20927734 2.9234375 15.14707031 2.9765625 16.11328125 C3.02893066 16.97735596 3.08129883 17.84143066 3.13525391 18.73168945 C3 21 3 21 1 24 C0.34 24 -0.32 24 -1 24 C-0.75443359 22.80503906 -0.75443359 22.80503906 -0.50390625 21.5859375 C0.10791538 17.23204401 0.10799591 13.0136058 0.0625 8.625 C0.05798828 7.79355469 0.05347656 6.96210938 0.04882812 6.10546875 C0.03713164 4.07028103 0.01919935 2.03513077 0 0 Z " fill="#D0F5FD" transform="translate(145,240)"/>
<path d="M0 0 C1.22589844 0.15275391 1.22589844 0.15275391 2.4765625 0.30859375 C3.41628906 0.43427734 3.41628906 0.43427734 4.375 0.5625 C4.705 1.5525 5.035 2.5425 5.375 3.5625 C4.375 4.5625 4.375 4.5625 1.0625 4.75 C-2.27138318 4.58048052 -3.88191987 4.31807129 -6.625 2.5625 C-6.625 1.9025 -6.625 1.2425 -6.625 0.5625 C-4.10446405 -0.69776798 -2.7707902 -0.35624445 0 0 Z " fill="#1876E1" transform="translate(309.625,282.4375)"/>
<path d="M0 0 C0.52078125 0.32742188 1.0415625 0.65484375 1.578125 0.9921875 C4.74712009 2.31089836 7.3298619 2.19340276 10.75 2.125 C11.92046875 2.10695313 13.0909375 2.08890625 14.296875 2.0703125 C15.18890625 2.04710937 16.0809375 2.02390625 17 2 C17 2.66 17 3.32 17 4 C14.11584117 5.44207941 11.58278472 5.09394887 8.375 5.0625 C7.18648437 5.05347656 5.99796875 5.04445313 4.7734375 5.03515625 C3.85820312 5.02355469 2.94296875 5.01195312 2 5 C1.34 3.35 0.68 1.7 0 0 Z " fill="#D8F1FE" transform="translate(204,275)"/>
<path d="M0 0 C3.625 0.375 3.625 0.375 7 1 C6.34 2.32 5.68 3.64 5 5 C2.69 5 0.38 5 -2 5 C-2 2 -2 2 0 0 Z " fill="#3278DB" transform="translate(195,258)"/>
<path d="M0 0 C0.66 0.33 1.32 0.66 2 1 C-0.21928194 3.90802461 -1.92969143 5.95312762 -5 8 C-7.26171875 7.9765625 -7.26171875 7.9765625 -9.6875 7.625 C-10.49574219 7.51414062 -11.30398437 7.40328125 -12.13671875 7.2890625 C-13.05904297 7.14597656 -13.05904297 7.14597656 -14 7 C-14 6.67 -14 6.34 -14 6 C-13.11248047 5.85304688 -13.11248047 5.85304688 -12.20703125 5.703125 C-7.12957861 4.74230199 -3.82486256 3.7014799 0 0 Z " fill="#D2F4FD" transform="translate(122,261)"/>
<path d="M0 0 C1.65 0 3.3 0 5 0 C3.68 0.33 2.36 0.66 1 1 C1 5.62 1 10.24 1 15 C2.32 15 3.64 15 5 15 C5 15.99 5 16.98 5 18 C3.35 18 1.7 18 0 18 C0 12.06 0 6.12 0 0 Z " fill="#2E6CD9" transform="translate(186,259)"/>
<path d="M0 0 C0.33 0.66 0.66 1.32 1 2 C0.39031953 3.68834592 -0.28837557 5.35202764 -1 7 C-1.67795528 8.99620166 -2.34733531 10.99538701 -3 13 C-3.99 13 -4.98 13 -6 13 C-6.33 13.99 -6.66 14.98 -7 16 C-6.66830805 9.69785303 -3.32676012 5.14783064 0 0 Z " fill="#60BBF2" transform="translate(71,224)"/>
<path d="M0 0 C0 0.66 0 1.32 0 2 C-0.66 2 -1.32 2 -2 2 C-2.33644531 2.96679688 -2.33644531 2.96679688 -2.6796875 3.953125 C-4 6 -4 6 -6.3828125 6.609375 C-7.28773437 6.65578125 -8.19265625 6.7021875 -9.125 6.75 C-10.03507812 6.80671875 -10.94515625 6.8634375 -11.8828125 6.921875 C-12.58148438 6.94765625 -13.28015625 6.9734375 -14 7 C-11.79459886 4.79459886 -9.78605258 3.7599273 -7 2.375 C-6.113125 1.92898438 -5.22625 1.48296875 -4.3125 1.0234375 C-2 0 -2 0 0 0 Z " fill="#C6F0FD" transform="translate(130,284)"/>
<path d="M0 0 C0.99 0.33 1.98 0.66 3 1 C3 1.66 3 2.32 3 3 C-6.41002278 6.44419134 -6.41002278 6.44419134 -11 6 C-10.67 5.01 -10.34 4.02 -10 3 C-6.7 2.67 -3.4 2.34 0 2 C0 1.34 0 0.68 0 0 Z " fill="#1F6DEB" transform="translate(367,271)"/>
<path d="M0 0 C1.6415049 3.2830098 0.51888624 6.42545033 0 10 C-0.66 10 -1.32 10 -2 10 C-1.34 11.98 -0.68 13.96 0 16 C-1.99093137 14.35142456 -2.91353305 13.46030938 -3.3984375 10.87890625 C-3.33462033 4.57164307 -3.33462033 4.57164307 -1.5 1.4375 C-0.7575 0.7259375 -0.7575 0.7259375 0 0 Z " fill="#3775DA" transform="translate(354,260)"/>
<path d="M0 0 C7.75 -0.125 7.75 -0.125 10 1 C9.67 2.65 9.34 4.3 9 6 C6.03 5.505 6.03 5.505 3 5 C4.32 4.67 5.64 4.34 7 4 C7 3.34 7 2.68 7 2 C4.36 2 1.72 2 -1 2 C-0.67 1.34 -0.34 0.68 0 0 Z " fill="#5083DA" transform="translate(232,258)"/>
<path d="M0 0 C0.33 0.66 0.66 1.32 1 2 C-0.625 4.9375 -0.625 4.9375 -3 8 C-6.25 8.875 -6.25 8.875 -9 9 C-9.33 8.34 -9.66 7.68 -10 7 C-9.36191406 6.57847656 -8.72382812 6.15695312 -8.06640625 5.72265625 C-7.24011719 5.17480469 -6.41382812 4.62695312 -5.5625 4.0625 C-4.73878906 3.51722656 -3.91507812 2.97195313 -3.06640625 2.41015625 C-1.10014075 1.16197019 -1.10014075 1.16197019 0 0 Z " fill="#5DB9F0" transform="translate(130,269)"/>
<path d="M0 0 C0.33 0.99 0.66 1.98 1 3 C1.928125 3.103125 2.85625 3.20625 3.8125 3.3125 C7 4 7 4 8.875 5.1875 C10.55183041 7.8890601 10.39612048 9.89705623 10 13 C9.01 13.66 8.02 14.32 7 15 C7.33 12.36 7.66 9.72 8 7 C7.05125 6.690625 6.1025 6.38125 5.125 6.0625 C2 5 2 5 0 4 C0 2.68 0 1.36 0 0 Z " fill="#3C7ACA" transform="translate(233,262)"/>
<path d="M0 0 C0.99 0 1.98 0 3 0 C3 2.64 3 5.28 3 8 C1.68 7.67 0.36 7.34 -1 7 C-1.04254356 5.00045254 -1.04080783 2.99958364 -1 1 C-0.67 0.67 -0.34 0.34 0 0 Z " fill="#1976E0" transform="translate(328,269)"/>
<path d="M0 0 C3 3.75 3 3.75 3 6 C3.66 6 4.32 6 5 6 C5.99 8.97 6.98 11.94 8 15 C3.79205414 11.24696721 1.83657832 8.21974892 0 3 C0 2.01 0 1.02 0 0 Z " fill="#52B5EC" transform="translate(65,262)"/>
<path d="M0 0 C0.125 2.875 0.125 2.875 0 6 C-0.66 6.66 -1.32 7.32 -2 8 C-2.99 8 -3.98 8 -5 8 C-5 6.02 -5 4.04 -5 2 C-1.125 0 -1.125 0 0 0 Z " fill="#F7FEFD" transform="translate(261,263)"/>
<path d="M0 0 C2.69275174 2.21818757 3.89288827 3.37925803 4.49609375 6.875 C4.47675781 7.90625 4.45742187 8.9375 4.4375 10 C4.43621094 11.03125 4.43492188 12.0625 4.43359375 13.125 C3.95900532 16.27182056 3.11139895 17.67018047 1 20 C1.165 19.360625 1.33 18.72125 1.5 18.0625 C2.15190296 14.06959439 2.46732207 10.03164292 2 6 C1.34 5.34 0.68 4.68 0 4 C0 2.68 0 1.36 0 0 Z " fill="#5DB5E4" transform="translate(119,242)"/>
<path d="M0 0 C1.32 0.33 2.64 0.66 4 1 C-1.42465753 7.78082192 -1.42465753 7.78082192 -5 10 C-5.66 10 -6.32 10 -7 10 C-6.67 9.01 -6.34 8.02 -6 7 C-5.360625 6.896875 -4.72125 6.79375 -4.0625 6.6875 C-3.381875 6.460625 -2.70125 6.23375 -2 6 C-0.6954344 3.00384054 -0.6954344 3.00384054 0 0 Z " fill="#E0FBFE" transform="translate(129,265)"/>
<path d="M0 0 C0.99 0 1.98 0 3 0 C2.67 1.32 2.34 2.64 2 4 C0.68 4.33 -0.64 4.66 -2 5 C-1.67 6.32 -1.34 7.64 -1 9 C-1.99 9 -2.98 9 -4 9 C-4 7.02 -4 5.04 -4 3 C-2.68 3 -1.36 3 0 3 C0 2.01 0 1.02 0 0 Z " fill="#4481E3" transform="translate(249,255)"/>
<path d="M0 0 C0.99 0 1.98 0 3 0 C2.67 1.65 2.34 3.3 2 5 C-0.64 5 -3.28 5 -6 5 C-6 4.34 -6 3.68 -6 3 C-4.02 2.67 -2.04 2.34 0 2 C0 1.34 0 0.68 0 0 Z " fill="#1C71EB" transform="translate(276,270)"/>
<path d="M0 0 C1.134375 0.020625 2.26875 0.04125 3.4375 0.0625 C0.4375 2.0625 0.4375 2.0625 -1.5625 3.0625 C-2.25181344 5.41157875 -2.25181344 5.41157875 -2.6875 8.125 C-2.85507813 9.04410156 -3.02265625 9.96320313 -3.1953125 10.91015625 C-3.31648437 11.62042969 -3.43765625 12.33070313 -3.5625 13.0625 C-3.8925 13.0625 -4.2225 13.0625 -4.5625 13.0625 C-4.58936553 11.08340602 -4.60883375 9.10421029 -4.625 7.125 C-4.63660156 6.02285156 -4.64820313 4.92070312 -4.66015625 3.78515625 C-4.51237367 -0.33502211 -4.25789233 0.07469987 0 0 Z " fill="#DFF4FE" transform="translate(196.5625,263.9375)"/>
<path d="M0 0 C1.32 0 2.64 0 4 0 C3.67 2.31 3.34 4.62 3 7 C2.01 7 1.02 7 0 7 C0 4.69 0 2.38 0 0 Z " fill="#F5FDFC" transform="translate(346,264)"/>
<path d="M0 0 C2.475 0.99 2.475 0.99 5 2 C4 5 4 5 2 8 C1.34 8 0.68 8 0 8 C0 5.36 0 2.72 0 0 Z " fill="#3EB4F6" transform="translate(114,239)"/>
<path d="M0 0 C4.455 0.99 4.455 0.99 9 2 C8.67 3.32 8.34 4.64 8 6 C5.69 5.34 3.38 4.68 1 4 C0.67 2.68 0.34 1.36 0 0 Z " fill="#D0EBFA" transform="translate(249,276)"/>
<path d="M0 0 C0.33 0 0.66 0 1 0 C1.3125 2.75 1.3125 2.75 1 6 C-1.5 8.375 -1.5 8.375 -4 10 C-4.66 9.67 -5.32 9.34 -6 9 C-5.02501855 7.4972763 -4.04490611 5.99788037 -3.0625 4.5 C-2.51722656 3.6646875 -1.97195312 2.829375 -1.41015625 1.96875 C-0.94480469 1.3190625 -0.47945312 0.669375 0 0 Z " fill="#CFF2FD" transform="translate(141,269)"/>
<path d="M0 0 C3.125 -0.1875 3.125 -0.1875 6 0 C5.67 0.66 5.34 1.32 5 2 C2.9375 2.625 2.9375 2.625 1 3 C-0.00217064 6.58327753 -0.00217064 6.58327753 1 10 C0.01 9.67 -0.98 9.34 -2 9 C-2.25 3.375 -2.25 3.375 0 0 Z " fill="#E3F8FE" transform="translate(389,268)"/>
<path d="M0 0 C1.98 0 3.96 0 6 0 C6 1.98 6 3.96 6 6 C4.35 5.01 2.7 4.02 1 3 C0.67 3.99 0.34 4.98 0 6 C0 4.02 0 2.04 0 0 Z " fill="#2C6CCB" transform="translate(248,252)"/>
<path d="M0 0 C0.66 0 1.32 0 2 0 C2.33 1.98 2.66 3.96 3 6 C2.01 6.33 1.02 6.66 0 7 C-0.99 8.485 -0.99 8.485 -2 10 C-2.66 8.35 -3.32 6.7 -4 5 C-3.01 4.67 -2.02 4.34 -1 4 C-0.26676204 1.98491642 -0.26676204 1.98491642 0 0 Z " fill="#D5EBFC" transform="translate(287,248)"/>
<path d="M0 0 C1.5 1.375 1.5 1.375 3 3 C3 3.66 3 4.32 3 5 C2.01 5.495 2.01 5.495 1 6 C0.67 6.99 0.34 7.98 0 9 C-0.99 9 -1.98 9 -3 9 C-2.30058404 5.85262818 -1.23921302 2.97411124 0 0 Z " fill="#4EB9F1" transform="translate(141,231)"/>
<path d="M0 0 C0.33 0 0.66 0 1 0 C1 4.95 1 9.9 1 15 C-0.98 15.99 -0.98 15.99 -3 17 C-2.68289063 16.47921875 -2.36578125 15.9584375 -2.0390625 15.421875 C-0.71079489 12.32591291 -0.57635753 9.60595879 -0.375 6.25 C-0.30023438 5.07953125 -0.22546875 3.9090625 -0.1484375 2.703125 C-0.09945313 1.81109375 -0.05046875 0.9190625 0 0 Z " fill="#E3F5FD" transform="translate(322,269)"/>
<path d="M0 0 C2.375 -0.125 2.375 -0.125 5 0 C7 2 7 2 7.125 4.625 C7.08375 5.40875 7.0425 6.1925 7 7 C6.01 7.33 5.02 7.66 4 8 C4.33 6.02 4.66 4.04 5 2 C3.35 1.67 1.7 1.34 0 1 C0 0.67 0 0.34 0 0 Z " fill="#D2EFFD" transform="translate(308,264)"/>
<path d="M0 0 C0 2.97 0 5.94 0 9 C-0.66 9 -1.32 9 -2 9 C-2.33 7.02 -2.66 5.04 -3 3 C-3.99 2.67 -4.98 2.34 -6 2 C-1.125 0 -1.125 0 0 0 Z " fill="#DDF7FE" transform="translate(261,269)"/>
<path d="M0 0 C1.65 0 3.3 0 5 0 C4.67 1.65 4.34 3.3 4 5 C2.68 4.67 1.36 4.34 0 4 C0 2.68 0 1.36 0 0 Z " fill="#1C71EF" transform="translate(366,261)"/>
<path d="M0 0 C-0.99 0.33 -1.98 0.66 -3 1 C-2.04134491 3.33075929 -2.04134491 3.33075929 1 5 C-3 5 -3 5 -4.75 3.625 C-6 2 -6 2 -6 0 C-3.50907189 -1.24546405 -2.58919267 -0.7767578 0 0 Z " fill="#427CD1" transform="translate(306,282)"/>
<path d="M0 0 C0.33 0.66 0.66 1.32 1 2 C3.64 2 6.28 2 9 2 C8.67 2.66 8.34 3.32 8 4 C6.35 4 4.7 4 3 4 C2.67 5.98 2.34 7.96 2 10 C1.67 10 1.34 10 1 10 C0.67 6.7 0.34 3.4 0 0 Z " fill="#3E7EDF" transform="translate(356,261)"/>
<path d="M0 0 C1.32 0 2.64 0 4 0 C4 1.32 4 2.64 4 4 C3.34 4 2.68 4 2 4 C2 4.99 2 5.98 2 7 C1.34 7 0.68 7 0 7 C0 4.69 0 2.38 0 0 Z " fill="#1F6FE9" transform="translate(205,260)"/>
<path d="M0 0 C4.29 0 8.58 0 13 0 C9.74874983 2.16750011 7.85466368 2.68533358 4 3 C1.625 2.0625 1.625 2.0625 0 1 C0 0.67 0 0.34 0 0 Z " fill="#518BD5" transform="translate(354,276)"/>
<path d="M0 0 C1.04973814 4.19895255 0.72795155 6.79405774 0 11 C-1.32 10.67 -2.64 10.34 -4 10 C-2.68 6.7 -1.36 3.4 0 0 Z " fill="#64BEF1" transform="translate(135,258)"/>
<path d="M0 0 C1.32 0 2.64 0 4 0 C4 1.32 4 2.64 4 4 C3.01 4.33 2.02 4.66 1 5 C0.34 4.67 -0.32 4.34 -1 4 C-0.67 2.68 -0.34 1.36 0 0 Z " fill="#216FEF" transform="translate(391,272)"/>
<path d="M0 0 C0.66 0 1.32 0 2 0 C2 2.31 2 4.62 2 7 C0.35 7 -1.3 7 -3 7 C-2.34 6.67 -1.68 6.34 -1 6 C-0.34227572 2.97065509 -0.34227572 2.97065509 0 0 Z " fill="#F8FDEF" transform="translate(426,260)"/>
<path d="M0 0 C3 0 3 0 6 1 C4.35 2.98 2.7 4.96 1 7 C-1 4 -1 4 -0.625 1.8125 C-0.41875 1.214375 -0.2125 0.61625 0 0 Z " fill="#E3F4FC" transform="translate(351,257)"/>
<path d="M0 0 C0.33 0 0.66 0 1 0 C0.67 2.97 0.34 5.94 0 9 C-0.66 9 -1.32 9 -2 9 C-2 8.34 -2 7.68 -2 7 C-3.32 6.34 -4.64 5.68 -6 5 C-4.35 4.67 -2.7 4.34 -1 4 C-0.67 2.68 -0.34 1.36 0 0 Z " fill="#D0EAFA" transform="translate(296,249)"/>
<path d="M0 0 C0.99 0 1.98 0 3 0 C3 0.66 3 1.32 3 2 C-0.06246747 3.78409802 -2.22079273 4.22880021 -5.75 4.125 C-6.54921875 4.10695313 -7.3484375 4.08890625 -8.171875 4.0703125 C-8.77515625 4.04710937 -9.3784375 4.02390625 -10 4 C-10 3.67 -10 3.34 -10 3 C-8.72125 2.87625 -7.4425 2.7525 -6.125 2.625 C-2.65209064 2.30957601 -2.65209064 2.30957601 0 0 Z " fill="#3773CB" transform="translate(316,284)"/>
<path d="M0 0 C1.65 0 3.3 0 5 0 C5 0.66 5 1.32 5 2 C5.66 2 6.32 2 7 2 C7 2.66 7 3.32 7 4 C4.69 3.67 2.38 3.34 0 3 C0 2.01 0 1.02 0 0 Z " fill="#F7FFF1" transform="translate(219,282)"/>
<path d="M0 0 C2.31 0 4.62 0 7 0 C6.67 0.99 6.34 1.98 6 3 C4.35 3 2.7 3 1 3 C0.67 2.01 0.34 1.02 0 0 Z " fill="#F0FBFE" transform="translate(307,279)"/>
<path d="M0 0 C0.66 0 1.32 0 2 0 C2 0.99 2 1.98 2 3 C3.65 3.33 5.3 3.66 7 4 C7 4.33 7 4.66 7 5 C4.69 5 2.38 5 0 5 C0 3.35 0 1.7 0 0 Z " fill="#2C72D5" transform="translate(162,248)"/>
<path d="M0 0 C2.31 0 4.62 0 7 0 C7.33 0.99 7.66 1.98 8 3 C5.36 2.67 2.72 2.34 0 2 C0 1.34 0 0.68 0 0 Z " fill="#1873EE" transform="translate(420,249)"/>
<path d="M0 0 C4.85077588 1.11940982 7.777893 2.1334716 11 6 C6.95743617 4.77782954 3.50711041 3.37245704 0 1 C0 0.67 0 0.34 0 0 Z " fill="#57B7EA" transform="translate(118,211)"/>
<path d="M0 0 C0.66 0.33 1.32 0.66 2 1 C0.88121617 2.17262904 -0.24523051 3.33795138 -1.375 4.5 C-2.00148437 5.1496875 -2.62796875 5.799375 -3.2734375 6.46875 C-5 8 -5 8 -7 8 C-5.61918777 3.8575633 -3.40174442 2.67796901 0 0 Z " fill="#53B5E3" transform="translate(135,276)"/>
<path d="M0 0 C2.64 0 5.28 0 8 0 C7.67 0.99 7.34 1.98 7 3 C5.02 3 3.04 3 1 3 C0.67 2.01 0.34 1.02 0 0 Z " fill="#1574E3" transform="translate(304,274)"/>
<path d="M0 0 C1.98 0.66 3.96 1.32 6 2 C6 2.66 6 3.32 6 4 C3.69 3.67 1.38 3.34 -1 3 C-0.67 2.01 -0.34 1.02 0 0 Z " fill="#CFF0FB" transform="translate(230,269)"/>
<path d="M0 0 C3.36720387 1.39332574 4.9859524 2.9789286 7 6 C5.35 6 3.7 6 2 6 C2 4.68 2 3.36 2 2 C1.34 2 0.68 2 0 2 C0 1.34 0 0.68 0 0 Z " fill="#4FB7EA" transform="translate(129,217)"/>
<path d="M0 0 C0 0.66 0 1.32 0 2 C-2.875 2.625 -2.875 2.625 -6 3 C-6.66 2.34 -7.32 1.68 -8 1 C-5.29120665 -0.35439668 -2.99066732 -0.06501451 0 0 Z " fill="#256DF0" transform="translate(96,214)"/>
<path d="M0 0 C0.66 0.99 1.32 1.98 2 3 C1 4 1 4 -2.5625 4.0625 C-3.696875 4.041875 -4.83125 4.02125 -6 4 C-5.01 3.67 -4.02 3.34 -3 3 C-3 2.34 -3 1.68 -3 1 C-2.01 0.67 -1.02 0.34 0 0 Z " fill="#1D72EE" transform="translate(313,283)"/>
<path d="M0 0 C0.33 0.99 0.66 1.98 1 3 C-1.35438733 4.42944945 -2.48032433 5.08661261 -5.25 4.625 C-5.8275 4.41875 -6.405 4.2125 -7 4 C-6.67 3.01 -6.34 2.02 -6 1 C-4.35 1.33 -2.7 1.66 -1 2 C-0.67 1.34 -0.34 0.68 0 0 Z " fill="#4181D9" transform="translate(217,270)"/>
<path d="M0 0 C0 2.31 0 4.62 0 7 C-1.32 6.34 -2.64 5.68 -4 5 C-3.625 3.0625 -3.625 3.0625 -3 1 C-1 0 -1 0 0 0 Z " fill="#EDFCFE" transform="translate(401,271)"/>
<path d="M0 0 C1.65 0 3.3 0 5 0 C5 1.65 5 3.3 5 5 C2 4 2 4 0.8125 1.9375 C0.544375 1.298125 0.27625 0.65875 0 0 Z " fill="#236EF8" transform="translate(277,254)"/>
<path d="M0 0 C1.98 0.66 3.96 1.32 6 2 C6 2.66 6 3.32 6 4 C4.02 4 2.04 4 0 4 C0 2.68 0 1.36 0 0 Z " fill="#F6FCFE" transform="translate(288,254)"/>
<path d="M0 0 C2.64 0.33 5.28 0.66 8 1 C7.67 2.32 7.34 3.64 7 5 C3.535 3.02 3.535 3.02 0 1 C0 0.67 0 0.34 0 0 Z " fill="#C2E0F9" transform="translate(274,247)"/>
</svg>
